<svg xmlns="http://www.w3.org/2000/svg" viewBox="0 0 24 24" width="24" height="24"><path fill="#ffffff" fill-rule="evenodd" d="M12 2.5c5.2 0 9.5 4.3 9.5 9.5S17.2 21.5 12 21.5 2.5 17.2 2.5 12 6.8 2.5 12 2.5zm0 2c-.7 0-1.5.8-2.1 2.5-.4 1-.7 2.3-.8 3.7h5.8c-.1-1.4-.4-2.7-.8-3.7C13.5 5.3 12.7 4.5 12 4.5zm4.9 6.2c-.1-1.5-.4-2.9-.9-4 .8.7 1.4 1.7 1.8 2.8.1.4.2.8.3 1.2zm-9.8 2.6c.1 1.5.4 2.9.9 4-.8-.7-1.4-1.7-1.8-2.8-.1-.4-.2-.8-.3-1.2zm3 0c.1 1.4.4 2.7.8 3.7.6 1.7 1.4 2.5 2.1 2.5s1.5-.8 2.1-2.5c.4-1 .7-2.3.8-3.7z" clip-rule="evenodd"/></svg>