<svg xmlns="http://www.w3.org/2000/svg" viewBox="0 0 24 24" width="24" height="24"><path fill="#ffffff" fill-rule="evenodd" d="M10.8 2.5h2.4c.5 0 .9.4 1 .9l.2 1.3c.1.4.4.6.7.8.3.2.7.2 1 0l1.2-.6c.4-.2.9-.1 1.2.3l1.7 2.9c.2.4.1.9-.2 1.2l-1 .9c-.3.3-.4.7-.4 1.1 0 .4.1.8.4 1.1l1 .9c.3.3.4.8.2 1.2l-1.7 2.9c-.3.4-.8.5-1.2.3l-1.2-.6c-.3-.2-.7-.1-1 0-.3.2-.6.4-.7.8l-.2 1.3c-.1.5-.5.9-1 .9h-2.4c-.5 0-.9-.4-1-.9l-.2-1.3c-.1-.4-.4-.6-.7-.8-.3-.2-.7-.2-1 0l-1.2.6c-.4.2-.9.1-1.2-.3l-1.7-2.9c-.2-.4-.1-.9.2-1.2l1-.9c.3-.3.4-.7.4-1.1 0-.4-.1-.8-.4-1.1l-1-.9c-.3-.3-.4-.8-.2-1.2l1.7-2.9c.3-.4.8-.5 1.2-.3l1.2.6c.3.2.7.1 1 0 .3-.2.6-.4.7-.8l.2-1.3c.1-.5.5-.9 1-.9zm1.2 6.5a3 3 0 1 0 0 6 3 3 0 0 0 0-6z" clip-rule="evenodd"/></svg>