<svg xmlns="http://www.w3.org/2000/svg" viewBox="0 0 24 24" width="24" height="24"><path fill="#ffffff" d="M5 3.5h3.5C9.3 3.5 10 4.2 10 5v3.5C10 9.3 9.3 10 8.5 10H5c-.8 0-1.5-.7-1.5-1.5V5C3.5 4.2 4.2 3.5 5 3.5zm0 10.5h3.5c.8 0 1.5.7 1.5 1.5V19c0 .8-.7 1.5-1.5 1.5H5c-.8 0-1.5-.7-1.5-1.5v-3.5c0-.8.7-1.5 1.5-1.5zm10.5-10.5H19c.8 0 1.5.7 1.5 1.5v3.5c0 .8-.7 1.5-1.5 1.5h-3.5c-.8 0-1.5-.7-1.5-1.5V5c0-.8.7-1.5 1.5-1.5zm0 10.5H19c.8 0 1.5.7 1.5 1.5V19c0 .8-.7 1.5-1.5 1.5h-3.5c-.8 0-1.5-.7-1.5-1.5v-3.5c0-.8.7-1.5 1.5-1.5z"/></svg>