<svg xmlns="http://www.w3.org/2000/svg" viewBox="0 0 24 24" width="24" height="24"><path fill="#ffffff" fill-rule="evenodd" d="M5 3.5h14C20.4 3.5 21.5 4.6 21.5 6v12c0 1.4-1.1 2.5-2.5 2.5H5c-1.4 0-2.5-1.1-2.5-2.5V6C2.5 4.6 3.6 3.5 5 3.5zm0 2c-.3 0-.5.2-.5.5v12c0 .3.2.5.5.5h14c.3 0 .5-.2.5-.5V6c0-.3-.2-.5-.5-.5zm2.7 3.2c.4-.3 1-.2 1.3.2l2 2.6c.3.4.3.9 0 1.3l-2 2.6c-.3.4-.9.5-1.3.2-.4-.3-.5-.9-.2-1.3l1.6-2.1L7.5 9.9c-.4-.3-.5-.9-.2-1.3zm5.3 5.8h4c.5 0 .9-.4.9-.9s-.4-.9-.9-.9h-4c-.5 0-.9.4-.9.9s.4.9.9.9z" clip-rule="evenodd"/></svg>